<svg xmlns="http://www.w3.org/2000/svg" width="1200" height="710" viewBox="0 0 1200 710">
<style>text{font-family:Segoe UI,Arial,sans-serif;fill:#172033} .t{font-size:20px;font-weight:700}.s{font-size:14px}.box{stroke:#536a8b;stroke-width:2;rx:12}.obs{fill:#e6f5ec}.inf{fill:#fff4d8}.unk{fill:#f5e8ec}.line{stroke:#536a8b;stroke-width:2;marker-end:url(#a)}</style><defs><marker id="a" markerWidth="10" markerHeight="7" refX="9" refY="3.5" orient="auto"><path d="M0,0 L10,3.5 L0,7z" fill="#536a8b"/></marker></defs>
<text x="35" y="38" class="t">DeepSeek web architecture — evidence-bounded (2026-08-15)</text>
<rect class="box obs" x="55" y="100" width="250" height="110"/><text x="78" y="135" class="t">Browser UI</text><text x="78" y="164" class="s">Observed: public sign-in surface</text><text x="78" y="187" class="s">Unknown: current app internals</text>
<rect class="box unk" x="55" y="300" width="250" height="150"/><text x="78" y="335" class="t">Browser state</text><text x="78" y="363" class="s">Local/session storage: unknown</text><text x="78" y="388" class="s">Service worker/cache: unknown</text><text x="78" y="413" class="s">Authentication storage: not inspected</text>
<rect class="box unk" x="450" y="80" width="300" height="485"/><text x="475" y="120" class="t">Web application services</text><text x="475" y="158" class="s">Authentication — UNKNOWN</text><text x="475" y="204" class="s">Conversation operations — UNKNOWN</text><text x="475" y="250" class="s">Generation — UNKNOWN for web</text><text x="475" y="296" class="s">Files — UNKNOWN</text><text x="475" y="342" class="s">Search — UNKNOWN</text><text x="475" y="388" class="s">Sharing/export — UNKNOWN</text><text x="475" y="450" class="s">Do not infer components/routes</text><text x="475" y="475" class="s">without authorized DevTools evidence.</text>
<rect class="box obs" x="895" y="180" width="255" height="190"/><text x="920" y="220" class="t">Documented API</text><text x="920" y="252" class="s">POST /chat/completions</text><text x="920" y="278" class="s">JSON messages</text><text x="920" y="304" class="s">Optional data-only SSE</text><text x="920" y="330" class="s">[DONE] terminal marker</text>
<line class="line" x1="305" y1="155" x2="450" y2="155"/><line class="line" x1="305" y1="375" x2="450" y2="375"/><line class="line" x1="750" y1="275" x2="895" y2="275"/>
<rect x="55" y="610" width="20" height="20" class="box obs"/><text x="84" y="626" class="s">Observed/documented</text><rect x="290" y="610" width="20" height="20" class="box inf"/><text x="319" y="626" class="s">Strongly inferred (none asserted here)</text><rect x="650" y="610" width="20" height="20" class="box unk"/><text x="679" y="626" class="s">Unknown / not observable</text>
</svg>
