<svg xmlns="http://www.w3.org/2000/svg" width="1100" height="620" viewBox="0 0 1100 620"><style>text{font-family:Segoe UI,Arial;fill:#172033}.h{font-size:22px;font-weight:bold}.p{font-size:15px}.o{fill:#e8f6ed;stroke:#397852;stroke-width:2}.i{fill:#fff5da;stroke:#9b7717;stroke-width:2}.u{fill:#f9eaee;stroke:#9a5263;stroke-width:2}.a{stroke:#475c7a;stroke-width:2;marker-end:url(#m)}</style><defs><marker id="m" markerWidth="10" markerHeight="7" refX="9" refY="3.5" orient="auto"><path d="M0 0L10 3.5 0 7z" fill="#475c7a"/></marker></defs><text x="32" y="40" class="h">DeepSeek web observed architecture — evidence status</text><rect x="55" y="105" width="270" height="135" rx="12" class="o"/><text x="80" y="142" class="h">Browser UI</text><text x="80" y="174" class="p">OBSERVED: public sign-in surface</text><text x="80" y="200" class="p">UNKNOWN: runtime UI/networking</text><rect x="55" y="330" width="270" height="135" rx="12" class="u"/><text x="80" y="367" class="h">Browser storage</text><text x="80" y="399" class="p">UNKNOWN: cookies, caches, DB</text><text x="80" y="425" class="p">No values captured</text><rect x="430" y="90" width="310" height="400" rx="12" class="i"/><text x="455" y="130" class="h">Web service boundary</text><text x="455" y="175" class="p">INFERRED: browser service exists</text><text x="455" y="220" class="p">UNKNOWN: conversations</text><text x="455" y="258" class="p">UNKNOWN: generation/streaming</text><text x="455" y="296" class="p">UNKNOWN: attachments</text><text x="455" y="334" class="p">UNKNOWN: search</text><text x="455" y="372" class="p">UNKNOWN: sharing/settings</text><rect x="835" y="180" width="220" height="170" rx="12" class="o"/><text x="860" y="218" class="h">Documented API</text><text x="860" y="252" class="p">OBSERVED docs:</text><text x="860" y="278" class="p">JSON completions</text><text x="860" y="304" class="p">optional SSE</text><line x1="325" y1="170" x2="430" y2="170" class="a"/><line x1="325" y1="397" x2="430" y2="397" class="a"/><line x1="740" y1="265" x2="835" y2="265" class="a"/><text x="55" y="560" class="p">Green = OBSERVED/documented; yellow = INFERRED; pink = UNKNOWN. No authenticated capture is represented.</text></svg>
